<?xml version="1.0" encoding="UTF-8"?>
<svg id="Calque_2" data-name="Calque 2" xmlns="http://www.w3.org/2000/svg" xmlns:xlink="http://www.w3.org/1999/xlink" viewBox="0 0 474.46 290.19">
  <defs>
    <style>
      .cls-1 {
        fill: #8cb835;
      }

      .cls-2 {
        fill: url(#Dégradé_sans_nom_18);
      }

      .cls-3 {
        fill: #5c5f5f;
      }
    </style>
    <linearGradient id="Dégradé_sans_nom_18" data-name="Dégradé sans nom 18" x1="0" y1="145.09" x2="330.13" y2="145.09" gradientUnits="userSpaceOnUse">
      <stop offset="0" stop-color="#8cb835"/>
      <stop offset="1" stop-color="#c1d98f"/>
    </linearGradient>
  </defs>
  <g id="Calque_1-2" data-name="Calque 1">
    <g>
      <g>
        <path class="cls-3" d="M268.98,144.33v-16.72l-15.73-24.74h12.06l9.01,15.29,8.89-15.29h12.12l-15.66,24.74v16.72h-10.69Z"/>
        <path class="cls-3" d="M298.38,144.33v-41.46h30.4v9.01h-19.71v6.9h19.27v9.08h-19.27v7.46h19.71v9.01h-30.4Z"/>
        <path class="cls-3" d="M363.65,144.33l-2.11-6.28h-17.22l-2.11,6.28h-11.62l15.6-41.46h13.43l15.66,41.46h-11.62ZM352.9,112.19l-5.78,16.85h11.62l-5.84-16.85Z"/>
        <path class="cls-3" d="M401.44,144.33l-6.96-14.05h-5.47v14.05h-10.69v-41.46h20.76c9.2,0,14.42,6.09,14.42,13.8,0,7.21-4.41,11.07-8.27,12.43l8.45,15.23h-12.25ZM397.46,111.88h-8.45v9.32h8.45c2.8,0,5.16-1.8,5.16-4.66s-2.36-4.66-5.16-4.66Z"/>
        <path class="cls-3" d="M422.07,130.47c2.98,2.98,7.58,5.47,13.24,5.47,3.67,0,5.91-1.55,5.91-3.54,0-2.36-2.67-3.29-7.09-4.23-6.84-1.37-16.41-3.11-16.41-12.93,0-6.96,5.91-12.99,16.53-12.99,6.65,0,12.43,1.99,16.85,5.78l-5.84,7.65c-3.48-2.86-8.02-4.29-11.69-4.29s-4.91,1.43-4.91,3.23c0,2.18,2.55,2.92,7.15,3.79,6.84,1.43,16.29,3.42,16.29,12.81,0,8.33-6.15,13.86-17.28,13.86-8.39,0-14.24-2.61-18.4-6.59l5.66-8.02Z"/>
      </g>
      <g>
        <path class="cls-1" d="M359.1,154.89l7.67,10.85,2.33,3.18-9.95,14.19-.04.07c-.24.41-.24.89-.02,1.28.22.38.62.6,1.06.6h5.07c.79,0,1.46-.35,1.87-.98,0,0,7.88-11.44,8.77-12.71h0c.45-.67.72-1.48.72-2.35,0,0,0,0,0,0,0,0,0,0,0,0,0-.06,0-.13,0-.19,0-.07,0-.13-.01-.2,0,0,0-.02,0-.03,0-.03,0-.06,0-.08,0-.08-.02-.16-.04-.24,0-.01,0-.03,0-.04,0,0,0,0,0-.01,0-.03-.01-.06-.02-.1-.02-.09-.04-.18-.07-.27h0s-.01-.06-.02-.08c0,0,0,0,0,0-.04-.12-.08-.23-.13-.35-.01-.03-.03-.07-.04-.1-.04-.08-.08-.16-.12-.24-.02-.03-.03-.07-.05-.1-.06-.1-.12-.21-.19-.31,0,0,0,0,0,0,0-.01-.02-.02-.03-.04-.03-.04-.06-.08-.09-.12.04.05.08.09.11.14l-8.71-12.65c-.42-.64-1.09-.99-1.88-.99h-5.12c-.45,0-.84.23-1.06.6-.23.39-.22.87.02,1.28Z"/>
        <g>
          <path class="cls-3" d="M277.57,185.06h-19.77v-4.64c0-11.11,14.26-9.67,14.26-17.02,0-2.67-2.06-4.07-4.2-4.07-2.32,0-4.2,1.62-4.2,4.59h-5.86c0-6.21,4.2-10.28,10.02-10.28s10.15,3.94,10.15,9.71c0,10.54-14,10.15-14.18,15.92h13.78v5.78Z"/>
          <path class="cls-3" d="M281.68,174.86v-10.5c0-6.3,4.2-10.72,10.24-10.72s10.28,4.42,10.28,10.72v10.5c0,6.26-4.24,10.63-10.28,10.63s-10.24-4.38-10.24-10.63ZM296.2,174.6v-9.98c0-3.94-1.97-5.16-4.29-5.16s-4.24,1.22-4.24,5.16v9.93c0,3.94,1.97,5.16,4.24,5.16s4.29-1.22,4.29-5.12Z"/>
          <path class="cls-3" d="M305.91,174.86v-10.5c0-6.3,4.2-10.72,10.24-10.72s10.28,4.42,10.28,10.72v10.5c0,6.26-4.24,10.63-10.28,10.63s-10.24-4.38-10.24-10.63ZM320.44,174.6v-9.98c0-3.94-1.97-5.16-4.29-5.16s-4.24,1.22-4.24,5.16v9.93c0,3.94,1.97,5.16,4.24,5.16s4.29-1.22,4.29-5.12Z"/>
          <path class="cls-3" d="M340.3,179.67c2.41,0,4.16-2.01,4.16-4.64v-1.27c0-2.36-1.57-4.29-4.33-4.29-2.41,0-3.37,1.4-3.98,2.49-1.93-.44-5.73-1.27-5.73-1.27l2.93-16.49h15.58v5.78h-10.72s-.79,4.07-1.14,6.08c.48-.57,2.19-1.62,4.64-1.62,5.16,0,8.75,3.02,8.75,9.32v1.36c0,6.26-4.2,10.41-10.28,10.41s-10.24-4.38-10.24-10.63h5.95c0,3.59,1.88,4.77,4.42,4.77Z"/>
          <path class="cls-3" d="M402.37,185.06h-19.77v-4.64c0-11.11,14.26-9.67,14.26-17.02,0-2.67-2.06-4.07-4.2-4.07-2.32,0-4.2,1.62-4.2,4.59h-5.86c0-6.21,4.2-10.28,10.02-10.28s10.15,3.94,10.15,9.71c0,10.54-14,10.15-14.18,15.92h13.78v5.78Z"/>
          <path class="cls-3" d="M406.48,174.86v-10.5c0-6.3,4.2-10.72,10.24-10.72s10.28,4.42,10.28,10.72v10.5c0,6.26-4.24,10.63-10.28,10.63s-10.24-4.38-10.24-10.63ZM421.01,174.6v-9.98c0-3.94-1.97-5.16-4.29-5.16s-4.24,1.22-4.24,5.16v9.93c0,3.94,1.97,5.16,4.24,5.16s4.29-1.22,4.29-5.12Z"/>
          <path class="cls-3" d="M450.05,185.06h-19.77v-4.64c0-11.11,14.26-9.67,14.26-17.02,0-2.67-2.06-4.07-4.2-4.07-2.32,0-4.2,1.62-4.2,4.59h-5.86c0-6.21,4.2-10.28,10.02-10.28s10.15,3.94,10.15,9.71c0,10.54-14,10.15-14.18,15.92h13.78v5.78Z"/>
          <path class="cls-3" d="M464.31,179.67c2.41,0,4.16-2.01,4.16-4.64v-1.27c0-2.36-1.57-4.29-4.33-4.29-2.41,0-3.37,1.4-3.98,2.49-1.92-.44-5.73-1.27-5.73-1.27l2.93-16.49h15.57v5.78h-10.72s-.79,4.07-1.14,6.08c.48-.57,2.19-1.62,4.64-1.62,5.16,0,8.75,3.02,8.75,9.32v1.36c0,6.26-4.2,10.41-10.28,10.41s-10.24-4.38-10.24-10.63h5.95c0,3.59,1.88,4.77,4.42,4.77Z"/>
        </g>
      </g>
      <path class="cls-2" d="M321.34,89.06v-9.11s-.03-.87-.09-2.5c-.13-1.62-.07-4.02-.6-7.05-.71-6.04-2.82-14.73-7.73-24.01-4.93-9.22-12.95-18.88-23.94-26.05-5.46-3.6-11.69-6.43-18.26-8.5-6.61-1.99-13.59-2.94-20.54-3.04-6.94.1-13.93,1.04-20.55,3.03-6.56,2.07-12.8,4.9-18.26,8.51-10.99,7.17-19.01,16.83-23.94,26.05-4.91,9.29-7.02,17.98-7.72,24.02-.52,3.02-.47,5.42-.59,7.04-.06,1.62-.09,2.5-.09,2.5v130.32s.03.86.09,2.49c.13,1.63.07,4.03.59,7.05.71,6.04,2.82,14.73,7.73,24.01,4.92,9.23,12.95,18.87,23.93,26.04,5.46,3.61,11.69,6.43,18.26,8.5,6.62,1.98,13.6,2.94,20.53,3.04,6.94-.11,13.92-1.06,20.54-3.03,6.57-2.07,12.81-4.9,18.27-8.51,10.99-7.17,19.01-16.83,23.94-26.04,4.9-9.3,7.02-17.97,7.72-24.01.53-3.03.47-5.42.6-7.05.06-1.63.09-2.49.09-2.49v-10.67h8.79v10.67s-.04.97-.1,2.8c-.14,1.82-.1,4.51-.67,7.9-.8,6.79-3.16,16.56-8.69,26.99-5.53,10.36-14.54,21.22-26.88,29.26-6.14,4.05-13.15,7.24-20.53,9.56-7.44,2.24-15.28,3.3-23.07,3.41-3.72-.05-7.44-.32-11.14-.83v.83H.11l69.16-155.17,5.33-13.3,5.97-13.39,1.46-3.29,1.16-2.92,2.67-6.65c1.72-4.32,3.31-8.48,4.45-11.92.55-1.67,1.01-3.21,1.23-4.16v-.06c-.03-.9-.15-2.72-1.28-4.85-1.62-3.05-5.57-6.31-10.3-6.2-4.74-.11-8.71,3.16-10.32,6.2-1.6,3.01-1.2,5.48-1.37,5.47v7.82h-8.79v-7.82c.22.05-.41-4.26,2.41-9.62,1.42-2.62,3.78-5.44,6.93-7.52,3.17-2.08,7.02-3.25,11.12-3.32,4.11.07,7.95,1.23,11.12,3.32,3.15,2.07,5.51,4.89,6.93,7.51,2.13,4.04,2.3,7.49,2.34,8.92h.1c-.02.35-.02.46-.05.62.01.03.03.09.03.09h-.04c-.05.31-.16.85-.29,1.46-.31,1.31-.83,3.06-1.44,4.91-1.24,3.75-2.88,8.01-4.62,12.4l-2.68,6.7-1.23,3.04-1.46,3.31-5.98,13.4-5.35,13.35L13.64,281.41h200.16c-2.51-1.27-4.92-2.66-7.22-4.18-.95-.62-1.87-1.25-2.77-1.9H23.02l59.91-134.4,5.36-13.38,5.98-13.41,1.47-3.32,1.26-3.14,2.7-6.73c1.75-4.42,3.43-8.76,4.74-12.72,1.23-3.67,1.99-6.79,2.05-8.36-.16-.31.42-5.7-3.12-12.42-1.84-3.43-4.88-7.05-8.96-9.74-4.11-2.71-9.17-4.24-14.45-4.31-5.28.07-10.35,1.61-14.45,4.31-4.1,2.69-7.13,6.32-8.97,9.74-3.67,6.98-2.89,12.57-3.13,12.49h0v7.82h-8.79v-7.82s.02-.44.08-1.25c.09-.81-.02-2.02.29-3.51.31-3.01,1.41-7.27,3.81-11.89,2.45-4.56,6.47-9.37,11.92-12.95,2.71-1.81,5.81-3.14,9.04-4.22,3.28-.97,6.72-1.41,10.2-1.51,3.48.1,6.94.53,10.21,1.51,3.23,1.07,6.33,2.4,9.03,4.22,5.46,3.56,9.48,8.39,11.92,12.95,2.41,4.62,3.51,8.87,3.8,11.89.32,1.48.2,2.7.29,3.51.02.44.05.75.05.96h.03c0,.06-.02.13-.02.2v.09s0,0,0,0c-.07,2.95-1.13,6.87-2.51,11.04-1.42,4.27-3.14,8.72-4.92,13.21l-2.71,6.77c-.87,2.19-1.75,4.31-2.79,6.59l-5.98,13.43-5.39,13.42-54.43,122.12h156.93c-1.96-1.98-3.78-4.01-5.46-6.08H45.92l50.65-113.62,5.39-13.46c4.02-9,8.05-17.79,11.55-26.93,1.79-4.53,3.55-9.04,5.04-13.55,1.45-4.47,2.75-8.91,2.82-13.03,0,0-.02-.47-.07-1.38-.1-.94,0-2.35-.34-4.11-.37-3.53-1.65-8.54-4.47-13.95-2.87-5.34-7.58-10.99-13.95-15.17-3.18-2.12-6.81-3.71-10.6-4.95-3.84-1.15-7.9-1.67-11.97-1.77-4.07.11-8.12.63-11.96,1.77-3.8,1.24-7.43,2.83-10.6,4.95-6.39,4.18-11.09,9.83-13.96,15.18-2.83,5.41-4.11,10.41-4.48,13.94-.35,1.75-.24,3.17-.34,4.11-.05.96-.08,1.47-.08,1.47v7.82h-8.79v-7.82s.03-.62.08-1.77c.12-1.15.02-2.86.42-4.98.47-4.27,1.99-10.36,5.44-16.92,3.47-6.5,9.16-13.32,16.9-18.39,3.85-2.56,8.26-4.51,12.87-6,4.66-1.4,9.57-2.04,14.49-2.15,4.92.1,9.84.75,14.5,2.15,4.61,1.49,9.03,3.44,12.87,6,7.75,5.06,13.42,11.89,16.9,18.39,3.44,6.55,4.97,12.65,5.43,16.92.41,2.12.31,3.84.42,4.98.02.5.04.84.05,1.14h.03c0,.06-.01.12-.01.2.01.28.02.44.02.44h-.06c-.23,5.53-1.73,11.09-3.21,15.71-1.6,4.81-3.39,9.44-5.21,14.02-3.52,9.19-7.65,18.23-11.63,27.14l-5.41,13.5-45.17,101.34h122.35c-.75-1.23-1.46-2.46-2.11-3.69-.43-.8-.83-1.6-1.22-2.4h-109.66l41.38-92.85,23.98-53.8-12.55,26.81c1-2.17,2-4.58,2.93-6.95l2.76-6.89c1.83-4.62,3.67-9.32,5.34-14.36,1.57-4.97,3.36-11.16,3.56-17.97,0-.3-.03-.78-.07-1.63-.11-1.29-.03-3.2-.46-5.58-.54-4.78-2.23-11.63-6.1-18.98-3.9-7.28-10.25-14.94-18.94-20.61-4.32-2.88-9.25-5.07-14.44-6.73-5.22-1.56-10.74-2.29-16.25-2.4-5.51.11-11.02.84-16.24,2.4-5.18,1.66-10.12,3.87-14.43,6.73-8.69,5.68-15.05,13.32-18.95,20.61-3.87,7.35-5.56,14.2-6.11,18.98-.44,2.39-.35,4.29-.46,5.58-.07,1.29-.09,1.98-.09,1.98v7.82h-8.79v-7.82h0s.03-.8.09-2.29c.13-1.49.06-3.68.54-6.45.64-5.52,2.58-13.46,7.07-21.95,4.51-8.44,11.84-17.27,21.89-23.83,5-3.3,10.7-5.87,16.7-7.77,6.04-1.81,12.43-2.68,18.78-2.78,6.36.1,12.74.96,18.79,2.77,6,1.91,11.7,4.47,16.7,7.78,10.05,6.55,17.38,15.4,21.89,23.83,4.48,8.49,6.42,16.43,7.06,21.96.49,2.76.42,4.95.54,6.44.04,1.21.07,1.83.08,2.07v.04l.02.18h-.02c-.04,1.84-.2,4.55-.49,6.45-.28,1.89-.64,3.59-1,5.23-.76,3.2-1.64,6-2.51,8.7-1.78,5.35-3.66,10.16-5.52,14.85l-2.77,6.92-1.49,3.7-1.5,3.41,12.55-26.8-24,53.84-35.91,80.56h92.42c-.75-2.11-1.37-4.14-1.88-6.08h0,0s-81.15,0-81.15,0l32.12-72.08,24.01-53.87-12.55,26.8,1.51-3.42,1.53-3.78,2.78-6.96c1.88-4.73,3.79-9.62,5.64-15.17.92-2.82,1.83-5.76,2.66-9.22.41-1.77.79-3.64,1.1-5.74.33-2.22.52-5.34.56-7.39h0c0-.14-.03-.96-.09-2.45-.13-1.62-.07-4.02-.6-7.04-.7-6.05-2.81-14.73-7.72-24.02-4.93-9.22-12.94-18.88-23.93-26.04-5.47-3.62-11.7-6.44-18.27-8.51-6.62-1.99-13.6-2.93-20.55-3.03-6.94.1-13.92,1.05-20.54,3.04-6.57,2.07-12.8,4.88-18.26,8.5-10.99,7.17-19,16.82-23.94,26.04-4.91,9.28-7.03,17.97-7.73,24.01-.52,3.03-.46,5.43-.59,7.05-.06,1.62-.09,2.5-.09,2.5v7.82H0v-7.82s.04-.98.11-2.81c.14-1.82.09-4.51.67-7.9.8-6.79,3.17-16.57,8.7-27,5.54-10.37,14.54-21.2,26.89-29.25,6.14-4.05,13.14-7.23,20.52-9.55,7.43-2.24,15.28-3.31,23.07-3.42,7.79.11,15.64,1.18,23.07,3.41,7.39,2.32,14.39,5.51,20.54,9.56,12.35,8.05,21.34,18.9,26.88,29.26,5.53,10.43,7.89,20.21,8.69,26.99.58,3.39.53,6.08.67,7.9.04,1.05.07,1.78.08,2.25.02.34.02.56.02.56h-.03c-.04,1.36-.08,3.51-.17,4.66-.13,1.31-.28,2.77-.46,3.95-.36,2.42-.79,4.51-1.24,6.48-.91,3.83-1.9,6.98-2.87,9.97-1.96,5.87-3.92,10.86-5.81,15.65l-2.81,7-1.58,3.92-1.51,3.43,12.54-26.78-24.03,53.91-26.65,59.8h65.84c-.04-.32-.09-.64-.12-.95-.57-3.4-.53-6.08-.67-7.9-.07-1.84-.11-2.8-.11-2.8V79.94s.04-.98.11-2.81c.13-1.83.09-4.51.67-7.91.8-6.78,3.16-16.56,8.69-26.99,5.53-10.36,14.53-21.21,26.88-29.26,6.14-4.05,13.14-7.24,20.53-9.56,7.44-2.23,15.29-3.3,23.08-3.41,7.79.11,15.63,1.18,23.08,3.42,7.38,2.32,14.38,5.5,20.52,9.55,12.34,8.05,21.34,18.89,26.88,29.26,5.53,10.44,7.89,20.21,8.7,27,.57,3.39.53,6.08.67,7.91.07,1.83.1,2.81.1,2.81v9.11h-8.79ZM300.39,89.06v-9.11s-.03-.61-.09-1.77c-.11-1.14,0-2.85-.41-4.98-.48-4.27-2-10.36-5.44-16.92-3.47-6.51-9.16-13.33-16.9-18.39-3.86-2.56-8.26-4.51-12.87-6-4.66-1.39-9.58-2.04-14.5-2.15-4.92.11-9.84.75-14.5,2.15-4.62,1.49-9.01,3.44-12.86,6-7.75,5.07-13.43,11.89-16.91,18.39-3.44,6.55-4.96,12.64-5.43,16.92-.4,2.13-.31,3.84-.42,4.98-.05,1.16-.08,1.77-.08,1.77v130.32s.03.61.08,1.76c.11,1.15.02,2.85.42,4.98.47,4.27,2,10.37,5.44,16.92,3.48,6.5,9.16,13.32,16.91,18.38,3.85,2.56,8.26,4.51,12.87,6,4.66,1.38,9.57,2.03,14.49,2.14,4.92-.11,9.84-.75,14.5-2.14,4.61-1.49,9.01-3.44,12.87-6,7.75-5.07,13.43-11.89,16.91-18.38,3.44-6.55,4.97-12.65,5.43-16.92.4-2.12.3-3.83.41-4.98.06-1.15.09-1.76.09-1.76v-10.67h-8.79v10.67s-.03.5-.08,1.46c-.1.95.01,2.36-.34,4.1-.37,3.53-1.64,8.54-4.47,13.95-2.87,5.36-7.56,10.99-13.96,15.17-3.18,2.13-6.81,3.71-10.6,4.95-3.84,1.15-7.89,1.67-11.96,1.77-4.07-.1-8.12-.62-11.96-1.77-3.8-1.24-7.44-2.83-10.61-4.95-6.39-4.18-11.09-9.82-13.96-15.17-2.83-5.4-4.1-10.42-4.47-13.95-.35-1.74-.24-3.16-.34-4.1-.05-.96-.08-1.46-.08-1.46V79.94s.03-.51.08-1.46c.1-.94-.02-2.36.34-4.11.38-3.53,1.65-8.54,4.47-13.95,2.87-5.35,7.56-10.99,13.96-15.17,3.17-2.12,6.81-3.71,10.6-4.94,3.84-1.15,7.89-1.67,11.96-1.77,4.07.11,8.12.62,11.96,1.77,3.79,1.24,7.43,2.83,10.61,4.94,6.39,4.18,11.09,9.83,13.96,15.18,2.83,5.41,4.1,10.4,4.47,13.94.36,1.75.24,3.17.34,4.11.05.95.08,1.46.08,1.46v9.11h8.79ZM315.25,89.06v-9.11h.01s-.04-.8-.1-2.29c-.13-1.49-.06-3.68-.54-6.44-.64-5.52-2.58-13.46-7.07-21.95-4.52-8.44-11.85-17.27-21.89-23.83-5-3.3-10.69-5.87-16.69-7.77-6.05-1.82-12.43-2.68-18.78-2.78-6.36.1-12.74.96-18.79,2.77-6.01,1.91-11.71,4.47-16.7,7.78-10.05,6.55-17.39,15.4-21.89,23.83-4.48,8.49-6.43,16.43-7.06,21.96-.49,2.76-.42,4.95-.54,6.44-.06,1.49-.1,2.29-.1,2.29v130.32s.04.79.1,2.28c.12,1.49.06,3.69.54,6.45.64,5.53,2.58,13.46,7.07,21.96,4.51,8.43,11.84,17.26,21.89,23.81,5.01,3.3,10.7,5.87,16.71,7.77,6.05,1.81,12.43,2.67,18.78,2.78,6.36-.11,12.74-.96,18.78-2.77,6-1.91,11.71-4.47,16.7-7.78,10.05-6.56,17.39-15.39,21.9-23.83,4.48-8.49,6.43-16.43,7.06-21.95.48-2.77.41-4.96.54-6.45.05-1.49.1-2.28.1-2.28h-.01v-10.67h-8.78v10.67s-.03.69-.09,1.98c-.11,1.28-.04,3.19-.46,5.57-.54,4.78-2.24,11.64-6.1,18.98-3.91,7.28-10.26,14.94-18.95,20.61-4.32,2.87-9.25,5.07-14.43,6.73-5.23,1.56-10.74,2.29-16.25,2.39-5.5-.11-11.02-.84-16.25-2.41-5.18-1.65-10.11-3.85-14.43-6.72-8.68-5.67-15.04-13.33-18.95-20.61-3.87-7.35-5.56-14.19-6.1-18.98-.44-2.38-.35-4.29-.46-5.57-.06-1.29-.09-1.98-.09-1.98V79.94s.03-.69.09-1.98c.12-1.29.03-3.2.46-5.59.54-4.78,2.24-11.63,6.1-18.98,3.9-7.28,10.26-14.94,18.94-20.6,4.32-2.87,9.25-5.07,14.44-6.73,5.23-1.57,10.75-2.3,16.25-2.39,5.5.1,11.02.83,16.25,2.39,5.18,1.67,10.11,3.86,14.43,6.73,8.68,5.68,15.04,13.32,18.94,20.6,3.86,7.35,5.56,14.2,6.1,18.98.43,2.39.36,4.3.47,5.59.06,1.29.09,1.98.09,1.98v9.11h8.78ZM270.65,89.06v-9.11c-.23.06.41-4.26-2.41-9.61-1.43-2.62-3.78-5.44-6.94-7.52-3.17-2.08-7.02-3.24-11.13-3.33-4.1.07-7.94,1.23-11.12,3.33-3.15,2.07-5.51,4.89-6.93,7.51-2.82,5.35-2.19,9.68-2.41,9.62v130.32c.22-.06-.41,4.25,2.41,9.61,1.42,2.63,3.78,5.44,6.93,7.52,3.18,2.08,7.03,3.24,11.13,3.31,4.11-.07,7.95-1.23,11.12-3.31,3.15-2.07,5.51-4.89,6.93-7.51,2.82-5.36,2.18-9.68,2.41-9.62v-10.67h-8.79v10.67c-.18-.02.23,2.46-1.37,5.47-1.61,3.04-5.55,6.3-10.3,6.19-4.74.11-8.7-3.16-10.31-6.2-1.59-3.01-1.19-5.48-1.37-5.46V79.94c.18.02-.23-2.47,1.37-5.48,1.62-3.04,5.56-6.3,10.29-6.19,4.74-.11,8.71,3.16,10.31,6.2,1.6,3.01,1.19,5.48,1.37,5.47v9.11h8.79ZM276.72,89.06h8.79v-9.11s-.02-.44-.08-1.25c-.1-.82.02-2.02-.29-3.51-.31-3.01-1.41-7.27-3.81-11.89-2.45-4.55-6.47-9.38-11.92-12.95-2.71-1.81-5.82-3.15-9.04-4.21-3.28-.97-6.72-1.41-10.22-1.51-3.47.1-6.93.53-10.2,1.51-3.23,1.07-6.33,2.39-9.04,4.21-5.45,3.56-9.47,8.39-11.91,12.95-2.4,4.61-3.5,8.86-3.8,11.89-.32,1.48-.19,2.7-.29,3.51-.05.81-.08,1.25-.08,1.25v130.32s.02.43.08,1.24c.1.81-.03,2.03.29,3.51.3,3.02,1.4,7.27,3.8,11.89,2.45,4.56,6.47,9.38,11.92,12.95,2.71,1.81,5.81,3.15,9.04,4.22,3.26.97,6.72,1.41,10.2,1.51,3.48-.1,6.94-.53,10.2-1.51,3.23-1.07,6.34-2.41,9.04-4.22,5.45-3.56,9.46-8.38,11.91-12.95,2.4-4.62,3.5-8.87,3.81-11.87.31-1.49.19-2.71.29-3.52.05-.82.08-1.24.08-1.24v-10.67h-8.79v10.67h0c-.25-.08.54,5.5-3.13,12.49-1.84,3.42-4.87,7.04-8.97,9.73-4.1,2.71-9.16,4.24-14.45,4.3-5.28-.06-10.35-1.61-14.44-4.3-4.09-2.69-7.13-6.33-8.97-9.74-3.67-6.98-2.89-12.56-3.13-12.48V79.94c.24.09-.54-5.51,3.13-12.5,1.84-3.42,4.88-7.05,8.97-9.74,4.1-2.7,9.16-4.23,14.43-4.31,5.29.08,10.35,1.61,14.45,4.31,4.1,2.69,7.13,6.33,8.98,9.74,3.67,6.98,2.89,12.58,3.13,12.49h0v9.11Z"/>
    </g>
  </g>
</svg>