<?xml version="1.0" encoding="utf-8"?>
<!-- Generator: Adobe Illustrator 24.1.0, SVG Export Plug-In . SVG Version: 6.00 Build 0)  -->
<svg version="1.1" id="Calque_1" xmlns="http://www.w3.org/2000/svg" xmlns:xlink="http://www.w3.org/1999/xlink" x="0px" y="0px"
	 viewBox="0 0 109.1 59.4" style="enable-background:new 0 0 109.1 59.4;" xml:space="preserve">
<style type="text/css">
	.st0{fill:#009B77;}
</style>
<path d="M53.9,15.7c-2.5-4.3-6-7.8-10.4-10.2C39.1,3,34.3,1.8,29.3,1.8c-5.1,0-9.8,1.3-14.1,3.7C10.8,8,7.4,11.4,4.9,15.8
	C2.4,20.1,1.2,25,1.2,30.1c0,5,1.3,9.7,3.8,14s6,7.7,10.3,10.2c4.4,2.4,9.1,3.7,14.2,3.7s9.8-1.3,14.2-3.7C48,51.8,51.5,48.4,54,44
	c2.5-4.3,3.7-9.1,3.7-14.2S56.4,20,53.9,15.7z M44.8,45.6c-4.2,4.1-9.4,6.2-15.4,6.2S18.2,49.7,14,45.4C9.8,41.3,7.7,36,7.7,29.9
	s2.1-11.4,6.2-15.6s9.3-6.4,15.4-6.4c6,0,11.2,2.1,15.4,6.4c4.3,4.2,6.4,9.5,6.4,15.6C51.1,36.2,49,41.5,44.8,45.6z" fill="#000"/>
<path class="st0" d="M79.9,55.3l-1,2.4h7l-1.1-2.4H79.9z" />
<path d="M83.9,2.9C83.6,2.4,83.1,2,82.5,2s-1.1,0.4-1.4,0.9L56.2,57.8h7l19.3-42.4l19.2,42.4h6.7L83.9,2.9z" fill="#000"/>
</svg>
