<svg xmlns="http://www.w3.org/2000/svg" viewBox="0 0 165.94 185.38">
	<path fill="#003366" d="M165.94,0V185.38H65.44a12.64,12.64,0,0,1-10.87-5.7L4.19,106.5l0-.06,0,0c-.38-.57-.74-1.17-1.07-1.77-.11-.19-.2-.38-.3-.57-.24-.46-.47-.93-.68-1.4-.08-.2-.17-.39-.25-.59-.27-.66-.52-1.32-.74-2a.07.07,0,0,0,0,0C1,99.87,1,99.71,1,99.55.81,99,.67,98.51.56,98c0-.18-.08-.37-.11-.56,0,0,0,0,0-.08l0-.23c-.08-.46-.16-.91-.21-1.37l-.06-.49s0-.11,0-.17c0-.38,0-.76-.06-1.15S0,93.21,0,92.84v-.07A24.28,24.28,0,0,1,4.16,79.16h0c5.11-7.35,50.7-73.5,50.7-73.5A12.64,12.64,0,0,1,65.69,0Z"/>
</svg>