<svg width="0" height="0" class="hidden">
  <symbol xmlns="http://www.w3.org/2000/svg" viewBox="0 0 100 100" id="facebook">
    <circle cx="50" cy="50" r="50"></circle>
    <path d="M62.57 52h-8.92v32.64H40.13V52H33.7V40.47h6.43V33c0-5.32 2.53-13.64 13.64-13.64h10v11.23h-7.25c-1.2 0-2.87.59-2.87 3.13v6.76h10.1z" fill="#fff"></path>
  </symbol>
  <symbol xmlns="http://www.w3.org/2000/svg" viewBox="0 0 100 100" id="instagram">
    <path d="M76.31 18.41a5.88 5.88 0 105.87 5.88 5.88 5.88 0 00-5.87-5.88zM50.17 26a24.7 24.7 0 1024.69 24.7A24.73 24.73 0 0050.17 26zm0 40.51A15.82 15.82 0 1166 50.65a15.83 15.83 0 01-15.83 15.81zM100 30.12A30.13 30.13 0 0069.88 0H30.12A30.13 30.13 0 000 30.12v39.76A30.13 30.13 0 0030.12 100h39.76A30.13 30.13 0 00100 69.88zm-9.43 39.76a20.7 20.7 0 01-20.69 20.69H30.12A20.7 20.7 0 019.43 69.88V30.12A20.7 20.7 0 0130.12 9.43h39.76a20.7 20.7 0 0120.69 20.69z"></path>
  </symbol>
  <symbol xmlns="http://www.w3.org/2000/svg" viewBox="0 0 100 100" id="linkedin">
    <path d="M50 0a50 50 0 1050 50A50 50 0 0050 0zM35.72 75.21H23.08V38.56h12.64zM29.38 33.5h-.08c-4.08 0-6.73-2.81-6.73-6.33s2.73-6.33 6.89-6.33 6.73 2.74 6.81 6.33-2.64 6.33-6.89 6.33zM80 75.21H67.33V55.62c0-4.93-1.74-8.29-6.09-8.29a6.59 6.59 0 00-6.16 4.45 8.47 8.47 0 00-.4 3v20.43H42.37s.16-33.22 0-36.65h12.31v5.19a12.25 12.25 0 0111.11-6.06c8.1 0 14.18 5.24 14.18 16.5z"></path>
  </symbol>
  <symbol xmlns="http://www.w3.org/2000/svg" viewBox="0 0 100 100" id="twitter">
    <path d="M50 0a50 50 0 1050 50A50 50 0 0050 0zm21.24 39v1.49c0 15.16-11.55 32.65-32.66 32.65A32.52 32.52 0 0121 68a25 25 0 002.74.15A23 23 0 0038 63.21a11.47 11.47 0 01-10.72-8 11.19 11.19 0 005.16-.2 11.48 11.48 0 01-9.2-11.25v-.14a11.3 11.3 0 005.2 1.43 11.5 11.5 0 01-3.56-15.32 32.56 32.56 0 0023.66 12 11.2 11.2 0 01-.29-3 11.48 11.48 0 0119.85-7.44 22.94 22.94 0 007.28-2.79 11.49 11.49 0 01-5 6.35A22.74 22.74 0 0077 33a23.48 23.48 0 01-5.76 6z"></path>
  </symbol>
  <symbol xmlns="http://www.w3.org/2000/svg" viewBox="0 0 100 100" id="youtube">
    <path d="M25.35 53.33h4.67v21.79h3.11V53.33h4.67v-3.11H25.35v3.11zm32.89 2.96a4.29 4.29 0 00-3.32 2v-8.07H51.8v24.9h3.12v-1.8a4.34 4.34 0 003.32 2.05 2.56 2.56 0 002.57-2.09 15.23 15.23 0 00.33-3.75v-7.4a14.68 14.68 0 00-.33-3.74 2.55 2.55 0 00-2.57-2.1zM58 69.78c0 1.66-.49 2.48-1.45 2.48a2.34 2.34 0 01-1.66-.82V60.23a2.36 2.36 0 011.66-.81c1 0 1.45.85 1.45 2.51zm-12.42.88c-.79 1.06-1.53 1.58-2.25 1.58-.47 0-.74-.26-.83-.79a9.55 9.55 0 010-1.31V56.45h-4.7v14.71a9.5 9.5 0 00.29 2.76 2 2 0 002.14 1.39c1.22 0 2.47-.75 3.79-2.29v2.1h4.67V56.45h-3.11zm1.56-31.59c1 0 1.55-.83 1.55-2.5V29c0-1.66-.5-2.49-1.55-2.49s-1.56.83-1.56 2.49v7.57c0 1.67.51 2.5 1.56 2.5z"></path>
    <path d="M50 0a50 50 0 1050 50A50 50 0 0050 0zm4.92 23.77h4.66v13.84a6.58 6.58 0 00.05 1.33.79.79 0 00.79.79c.71 0 1.45-.52 2.24-1.59V23.77h3.11v18.67h-4.63v-2c-1.32 1.55-2.58 2.3-3.79 2.3a2 2 0 01-2.14-1.39 9.64 9.64 0 01-.29-2.78zm-12.45 6a6.69 6.69 0 011-4.11 4.69 4.69 0 017.36 0 6.83 6.83 0 011 4.11v6.11a6.83 6.83 0 01-1 4.11 4.69 4.69 0 01-7.36 0 6.69 6.69 0 01-1-4.11zm-8.89-12.23l2.68 9.33 2.58-9.33h3.82L37.8 32v10.44h-3.11V32c-.69-1.84-1.45-4.49-2.69-8-.8-2.34-1.63-4.69-2.42-6.45zm43.34 59.25a7.08 7.08 0 01-6 5.48A187.27 187.27 0 0150 83a186.75 186.75 0 01-20.89-.77 7 7 0 01-6-5.48c-1-4.23-1-8.84-1-13.19s0-9 1-13.18a7.05 7.05 0 016-5.49A189.15 189.15 0 0150 44.16a189.17 189.17 0 0120.89.77 7.05 7.05 0 016 5.49c1 4.22 1 8.83 1 13.18s0 8.96-.97 13.19z"></path>
    <path d="M69 57.2a4.28 4.28 0 00-3.73 1.9 7.66 7.66 0 00-1 4.39V70a7.7 7.7 0 001 4.38 4.34 4.34 0 003.73 1.9 4.2 4.2 0 003.76-2 5.14 5.14 0 00.73-2c0-.34.07-1.09.07-2.18v-1.21H70.3a18.61 18.61 0 01-.08 2.11c-.19.91-.67 1.36-1.5 1.36-1.16 0-1.73-.86-1.36-2.58v-2.44h6.23v-3.86a7.7 7.7 0 00-1-4.38A4.21 4.21 0 0069 57.2zm1.53 7h-3.17v-1.7c0-1.72.53-2.58 1.57-2.58s1.55.86 1.55 2.58z"></path>
  </symbol>
</svg>